<svg xmlns="http://www.w3.org/2000/svg" width="24" height="24" viewBox="0 0 24 24">
    <g fill="none" fill-rule="nonzero">
        <path fill="#000" fill-opacity=".54" d="M11.75 19.214c-3.422 0-6.49-1.891-9.178-5.595l-.32-.44.32-.441C5.26 9.035 8.328 7.143 11.75 7.143c3.422 0 6.49 1.892 9.178 5.595l.32.44-.32.441c-2.688 3.704-5.756 5.595-9.178 5.595zm0-1.5c2.76 0 5.298-1.488 7.636-4.535-2.338-3.048-4.876-4.536-7.636-4.536s-5.298 1.488-7.636 4.536c2.338 3.047 4.876 4.535 7.636 4.535zM8.857 13.18a.75.75 0 0 1 1.5 0 1.393 1.393 0 1 0 1.393-1.393.75.75 0 0 1 0-1.5 2.893 2.893 0 1 1-2.893 2.893zM22.31 8.535a.75.75 0 1 1-1.118 1.001C18.833 6.903 15.501 5.5 11.75 5.5c-3.752 0-7.083 1.403-9.441 4.036a.75.75 0 0 1-1.118-1C3.842 5.575 7.583 4 11.75 4c4.167 0 7.908 1.575 10.559 4.535z"/>
        <path d="M0 0h24v24H0z"/>
    </g>
</svg>
