<svg xmlns="http://www.w3.org/2000/svg" width="24" height="24" viewBox="0 0 24 24">
    <g fill="none" fill-rule="nonzero">
        <path fill="#FFF" d="M8.727 7.09v9a.818.818 0 0 1-1.636 0V6.85c0-.76.6-1.395 1.364-1.395h2.181C11.4 5.455 12 6.09 12 6.85v9.24a.818.818 0 0 1-1.636 0v-9H8.727zm6.546 9a.818.818 0 0 1-1.637 0v-2.908c0-.74.664-1.182 1.364-1.182h2.182c.7 0 1.363.443 1.363 1.182v2.909a.818.818 0 1 1-1.636 0v-2.455h-1.636v2.455zM3 3.819a.818.818 0 0 1 1.636 0v14.854c.01.338.066.532.124.597.037.043.152.087.367.095h15.055a.818.818 0 1 1 0 1.636H5.099c-.657-.024-1.197-.228-1.568-.65-.35-.399-.512-.948-.531-1.656V3.818z"/>
        <path d="M0 0h24v24H0z"/>
    </g>
</svg>
