<svg xmlns="http://www.w3.org/2000/svg" width="22" height="22" viewBox="0 0 22 22">
    <g fill="none" fill-rule="nonzero">
        <path fill="#000" fill-opacity=".54" d="M11 18.464c-3.422 0-6.49-1.891-9.178-5.595l-.32-.44.32-.441C4.51 8.285 7.578 6.393 11 6.393c3.422 0 6.49 1.892 9.178 5.595l.32.44-.32.441c-2.688 3.704-5.756 5.595-9.178 5.595zm0-1.5c2.76 0 5.298-1.488 7.636-4.535C16.298 9.38 13.76 7.893 11 7.893S5.702 9.38 3.364 12.429C5.702 15.476 8.24 16.964 11 16.964zM8.107 12.43a.75.75 0 0 1 1.5 0A1.393 1.393 0 1 0 11 11.036a.75.75 0 0 1 0-1.5 2.893 2.893 0 1 1-2.893 2.893zM21.56 7.785a.75.75 0 1 1-1.118 1.001C18.083 6.153 14.751 4.75 11 4.75c-3.752 0-7.083 1.403-9.441 4.036a.75.75 0 0 1-1.118-1C3.092 4.825 6.833 3.25 11 3.25c4.167 0 7.908 1.575 10.559 4.535zM2.426 2.483a.75.75 0 0 1 1.148-.966l16 19a.75.75 0 1 1-1.148.966l-16-19z"/>
        <path fill="#FFF" d="M3.426 1.483A.75.75 0 0 1 4.574.517l16 19a.75.75 0 1 1-1.148.966l-16-19z"/>
        <path d="M-1-1h24v24H-1z"/>
    </g>
</svg>
