<svg xmlns="http://www.w3.org/2000/svg" width="20" height="20" viewBox="0 0 20 20">
    <g fill="none" fill-rule="nonzero">
        <path fill="#000" fill-opacity=".54" d="M16.875 8.5a.75.75 0 0 1 1.5 0v7.871c.005.935-.247 1.69-.784 2.224-.535.531-1.293.782-2.23.78H3c-.934 0-1.687-.251-2.218-.782C.251 18.062 0 17.309 0 16.375V4c0-.934.251-1.687.782-2.218C1.313 1.251 2.066 1 3 1h7.875a.75.75 0 1 1 0 1.5H3c-.566 0-.938.124-1.157.343-.219.219-.343.59-.343 1.157v12.375c0 .566.124.938.343 1.157.219.219.59.343 1.157.343h12.361c.573 0 .95-.124 1.173-.345.22-.219.344-.588.341-1.155V8.5zm-11 7.5a1.125 1.125 0 1 1 0-2.25 1.125 1.125 0 0 1 0 2.25zm3.432-3.498a.75.75 0 0 1-1.114-1.004L18.318.248a.75.75 0 1 1 1.114 1.004L9.307 12.502z"/>
        <path d="M-2-2h24v24H-2z"/>
    </g>
</svg>
