<svg xmlns="http://www.w3.org/2000/svg" width="24" height="24" viewBox="0 0 24 24">
    <g fill="none" fill-rule="nonzero">
        <path fill="#000" fill-opacity=".54" d="M11.293 5.554l-3.677 4.3a.747.747 0 0 1-1.055.082.751.751 0 0 1-.081-1.057l4.273-4.997c.365-.433.795-.684 1.287-.682.098 0 .196.012.293.033a.75.75 0 0 1 .457 1.153v11.639a.75.75 0 1 1-1.497 0V5.555zm-8.043 8.42a.75.75 0 0 1 1.5 0v3.99c0 .483.103.792.28.968.176.175.499.28 1.008.28H18c.483 0 .793-.103.97-.28.177-.176.28-.485.28-.967v-3.99a.75.75 0 0 1 1.5 0v3.99c0 .848-.23 1.537-.72 2.025-.49.489-1.18.718-2.03.718H6.038c-.875 0-1.577-.227-2.068-.718-.49-.488-.72-1.177-.72-2.025v-3.99zM13.748 6.67a.751.751 0 0 1 .081-1.058.747.747 0 0 1 1.055.082l2.723 3.183a.751.751 0 0 1-.082 1.058.747.747 0 0 1-1.055-.082L13.748 6.67z"/>
        <path d="M0 0h24v24H0z"/>
    </g>
</svg>
