<svg xmlns="http://www.w3.org/2000/svg" width="24" height="24" viewBox="0 0 24 24">
    <g fill="none" fill-rule="nonzero">
        <path d="M0 0h24v24H0z"/>
        <path fill="#2656D4" d="M4.014 6.737a.867.867 0 0 1-.864-.868c0-.48.387-.869.864-.869h16.272c.477 0 .864.389.864.869s-.387.868-.864.868H4.014zm2.034 4.088a.867.867 0 0 1-.864-.869c0-.48.387-.868.864-.868h12.204c.477 0 .864.388.864.868s-.387.869-.864.869H6.048zM9.1 14.912a.867.867 0 0 1-.864-.868c0-.48.387-.869.864-.869h6.102c.477 0 .864.39.864.869 0 .48-.387.868-.864.868H9.099zM11.133 19a.867.867 0 0 1-.864-.869c0-.48.387-.868.864-.868h2.034c.477 0 .864.389.864.868 0 .48-.387.869-.864.869h-2.034z"/>
    </g>
</svg>
