<svg xmlns="http://www.w3.org/2000/svg" width="24" height="24" viewBox="0 0 24 24">
    <g fill="none" fill-rule="nonzero">
        <path fill="#FFF" d="M6.564 4.41a.126.126 0 0 0-.127.125v14.93c0 .07.057.125.127.125h10.144c.07 0 .127-.056.127-.125V4.535a.126.126 0 0 0-.127-.125H6.564zm0-1.41h10.144c.864 0 1.564.687 1.564 1.535v14.93c0 .848-.7 1.535-1.564 1.535H6.564C5.7 21 5 20.313 5 19.465V4.535C5 3.687 5.7 3 6.564 3zm1.69 4.728a.712.712 0 0 1-.718-.705c0-.39.322-.705.719-.705h1.69c.397 0 .719.316.719.705 0 .39-.322.705-.719.705h-1.69zm0 3.489a.712.712 0 0 1-.718-.705c0-.39.322-.706.719-.706h1.69c.397 0 .719.316.719.706 0 .389-.322.705-.719.705h-1.69zm5.162-3.904c-.034 0-.062.085-.062.19v2.529c0 .104.028.19.062.19h.821c.034 0 .062-.086.062-.19V7.503c0-.105-.028-.19-.062-.19h-.82zm-.26-1.41h1.34c.685 0 1.24.833 1.24 1.86v2.01c0 1.026-.555 1.858-1.24 1.858h-1.34c-.684 0-1.239-.832-1.239-1.859v-2.01c0-1.026.555-1.859 1.24-1.859zM8.256 14.2a.712.712 0 0 1-.719-.705c0-.39.322-.705.719-.705h6.762c.397 0 .719.316.719.705 0 .39-.322.705-.719.705H8.255zm0 3.482a.712.712 0 0 1-.719-.705c0-.39.322-.705.719-.705h6.762c.397 0 .719.316.719.705 0 .39-.322.705-.719.705H8.255z"/>
        <path d="M0 0h24v24H0z"/>
    </g>
</svg>
