<?xml version="1.0" encoding="UTF-8"?>
<svg width="24" height="24" viewBox="0 0 24 24" version="1.1" xmlns="http://www.w3.org/2000/svg" xmlns:xlink="http://www.w3.org/1999/xlink">
    <!-- Generator: Sketch 51.3 (57544) - http://www.bohemiancoding.com/sketch -->
    <title>Artboard</title>
    <desc>Created with Sketch.</desc>
    <defs></defs>
    <g id="Artboard" stroke="none" stroke-width="1" fill="none" fill-rule="evenodd">
        <g id="Rectangle-6" fill-rule="nonzero">
            <path d="M19.7602414,12.4511382 C19.8487992,12.5106442 19.9521256,12.5426357 20.0620155,12.5426357 C20.3617049,12.5426357 20.6046512,12.2996894 20.6046512,12 C20.6046512,11.7003106 20.3617049,11.4573643 20.0620155,11.4573643 C19.9521256,11.4573643 19.8487992,11.4893558 19.7602414,11.5488618 L19.0888497,12 L19.7602414,12.4511382 Z M18.6800484,11.0654786 C18.5255079,9.94952219 18.0947681,8.90104104 17.4324513,8.00261211 L16.8732704,7.24408636 L17.7619846,6.93066708 C17.9770287,6.85482835 18.124031,6.65063306 18.124031,6.41860465 C18.124031,6.11891525 17.8810847,5.87596899 17.5813953,5.87596899 C17.3493669,5.87596899 17.1451716,6.02297131 17.0693329,6.23801536 L16.7559136,7.12672957 L15.9973879,6.56754867 C15.098959,5.90523192 14.0504778,5.47449212 12.9345214,5.31995156 L11.8282496,5.16675216 L12.4511382,4.2397586 C12.5106442,4.15120084 12.5426357,4.04787439 12.5426357,3.9379845 C12.5426357,3.6382951 12.2996894,3.39534884 12,3.39534884 C11.7003106,3.39534884 11.4573643,3.6382951 11.4573643,3.9379845 C11.4573643,4.04787439 11.4893558,4.15120084 11.5488618,4.2397586 C11.7637633,4.55957876 11.6787099,4.99305634 11.3588898,5.20795787 C11.0390696,5.4228594 10.605592,5.33780604 10.3906905,5.01798588 C10.1777594,4.70109808 10.0620155,4.32726743 10.0620155,3.9379845 C10.0620155,2.86766521 10.9296807,2 12,2 C13.0703193,2 13.9379845,2.86766521 13.9379845,3.9379845 C13.9379845,3.98939299 13.935966,4.04053201 13.9319716,4.09130598 C14.7414365,4.28842286 15.512189,4.60854709 16.220352,5.03876301 C16.5738902,4.69025721 17.0576866,4.48062016 17.5813953,4.48062016 C18.6517146,4.48062016 19.5193798,5.34828537 19.5193798,6.41860465 C19.5193798,6.94231339 19.3097428,7.42610982 18.961237,7.77964805 C19.3914529,8.48781103 19.7115771,9.25856347 19.908694,10.0680284 C19.959468,10.064034 20.010607,10.0620155 20.0620155,10.0620155 C21.1323348,10.0620155 22,10.9296807 22,12 C22,13.0703193 21.1323348,13.9379845 20.0620155,13.9379845 C20.010607,13.9379845 19.959468,13.935966 19.908694,13.9319716 C19.7115771,14.7414365 19.3914529,15.512189 18.961237,16.220352 C19.3097428,16.5738902 19.5193798,17.0576866 19.5193798,17.5813953 C19.5193798,18.6517146 18.6517146,19.5193798 17.5813953,19.5193798 C17.0576866,19.5193798 16.5738902,19.3097428 16.220352,18.961237 C15.512189,19.3914529 14.7414365,19.7115771 13.9319716,19.908694 C13.935966,19.959468 13.9379845,20.010607 13.9379845,20.0620155 C13.9379845,21.1323348 13.0703193,22 12,22 C10.9296807,22 10.0620155,21.1323348 10.0620155,20.0620155 C10.0620155,20.010607 10.064034,19.959468 10.0680284,19.908694 C9.25856347,19.7115771 8.48781103,19.3914529 7.77964805,18.961237 C7.42610982,19.3097428 6.94231339,19.5193798 6.41860465,19.5193798 C5.34828537,19.5193798 4.48062016,18.6517146 4.48062016,17.5813953 C4.48062016,17.0576866 4.69025721,16.5738902 5.03876301,16.220352 C4.60854709,15.512189 4.28842286,14.7414365 4.09130598,13.9319716 C4.040532,13.935966 3.98939299,13.9379845 3.9379845,13.9379845 C2.86766521,13.9379845 2,13.0703193 2,12 C2,10.9296807 2.86766521,10.0620155 3.9379845,10.0620155 C3.98939299,10.0620155 4.04053201,10.064034 4.09130598,10.0680284 C4.28842286,9.25856347 4.60854709,8.48781103 5.03876301,7.77964805 C4.69025721,7.42610982 4.48062016,6.94231339 4.48062016,6.41860465 C4.48062016,5.34828537 5.34828537,4.48062016 6.41860465,4.48062016 C6.80391959,4.48062016 7.11627907,4.79297963 7.11627907,5.17829457 C7.11627907,5.56360952 6.80391959,5.87596899 6.41860465,5.87596899 C6.11891525,5.87596899 5.87596899,6.11891525 5.87596899,6.41860465 C5.87596899,6.65063306 6.02297131,6.85482835 6.23801536,6.93066708 L7.12672957,7.24408636 L6.56754867,8.00261211 C5.90523192,8.90104104 5.47449212,9.94952219 5.31995156,11.0654786 L5.1905366,12 L5.31995156,12.9345214 C5.47449212,14.0504778 5.90523192,15.098959 6.56754867,15.9973879 L7.12672957,16.7559136 L6.23801536,17.0693329 C6.02297131,17.1451716 5.87596899,17.3493669 5.87596899,17.5813953 C5.87596899,17.8810847 6.11891525,18.124031 6.41860465,18.124031 C6.65063306,18.124031 6.85482835,17.9770287 6.93066708,17.7619846 L7.24408636,16.8732704 L8.00261211,17.4324513 C8.90104104,18.0947681 9.94952219,18.5255079 11.0654786,18.6800484 L12,18.8094634 L12.9345214,18.6800484 C14.0504778,18.5255079 15.098959,18.0947681 15.9973879,17.4324513 L16.7559136,16.8732704 L17.0693329,17.7619846 C17.1451716,17.9770287 17.3493669,18.124031 17.5813953,18.124031 C17.8810847,18.124031 18.124031,17.8810847 18.124031,17.5813953 C18.124031,17.3493669 17.9770287,17.1451716 17.7619846,17.0693329 L16.8732704,16.7559136 L17.4324513,15.9973879 C18.0947681,15.098959 18.5255079,14.0504778 18.6800484,12.9345214 L18.8094634,12 L18.6800484,11.0654786 Z M11.5488618,19.7602414 C11.4893558,19.8487992 11.4573643,19.9521256 11.4573643,20.0620155 C11.4573643,20.3617049 11.7003106,20.6046512 12,20.6046512 C12.2996894,20.6046512 12.5426357,20.3617049 12.5426357,20.0620155 C12.5426357,19.9521256 12.5106442,19.8487992 12.4511382,19.7602414 L12,19.0888497 L11.5488618,19.7602414 Z M4.2397586,11.5488618 C4.15120084,11.4893558 4.04787439,11.4573643 3.9379845,11.4573643 C3.6382951,11.4573643 3.39534884,11.7003106 3.39534884,12 C3.39534884,12.2996894 3.6382951,12.5426357 3.9379845,12.5426357 C4.04787439,12.5426357 4.15120084,12.5106442 4.2397586,12.4511382 L4.9111503,12 L4.2397586,11.5488618 Z M12,14.5581395 C10.5871785,14.5581395 9.44186047,13.4128215 9.44186047,12 C9.44186047,10.5871785 10.5871785,9.44186047 12,9.44186047 C13.4128215,9.44186047 14.5581395,10.5871785 14.5581395,12 C14.5581395,13.4128215 13.4128215,14.5581395 12,14.5581395 Z M12,13.1627907 C12.6421916,13.1627907 13.1627907,12.6421916 13.1627907,12 C13.1627907,11.3578084 12.6421916,10.8372093 12,10.8372093 C11.3578084,10.8372093 10.8372093,11.3578084 10.8372093,12 C10.8372093,12.6421916 11.3578084,13.1627907 12,13.1627907 Z" id="Combined-Shape" fill="#FFFFFF"></path>
            <rect x="0" y="0" width="24" height="24"></rect>
        </g>
    </g>
</svg>