<svg xmlns="http://www.w3.org/2000/svg" width="24" height="24" viewBox="0 0 24 24">
    <g fill="none" fill-rule="nonzero">
        <path fill="#FFF" d="M11.556 20.037a7.556 7.556 0 1 1 0-15.112 7.556 7.556 0 0 1 0 15.112zm0-1.636a5.92 5.92 0 1 0 0-11.84 5.92 5.92 0 0 0 0 11.84zM8.668 4.636a.818.818 0 0 1 0-1.636h5.776a.818.818 0 0 1 0 1.636H8.668zm-1.54 13.042a.818.818 0 1 1 1.156 1.157L6.36 20.76a.818.818 0 1 1-1.157-1.157l1.925-1.925zm8.857 0l1.925 1.925a.818.818 0 1 1-1.157 1.157l-1.925-1.925a.818.818 0 1 1 1.157-1.157zm-2.04-4.598a.765.765 0 0 1 0 1.53H10.48V9.345a.765.765 0 0 1 1.53 0v3.735h1.935z"/>
        <path d="M0 0h24v24H0z"/>
    </g>
</svg>
